{
  "accessors": [
    {
      "bufferView": 0,
      "byteOffset": 0,
      "componentType": 5123,
      "count": 252,
      "type": "SCALAR",
      "max": [250],
      "min": [0]
    },
    {
      "bufferView": 1,
      "byteOffset": 0,
      "componentType": 5126,
      "count": 251,
      "type": "VEC3",
      "max": [1.0306344032287598, 1.0952199697494507, 4.028456211090088],
      "min": [-1.1598055362701416, -1.0952199697494507, -3.654665470123291],
      "name": "POSITION"
    },
    {
      "bufferView": 1,
      "byteOffset": 12,
      "componentType": 5126,
      "count": 251,
      "type": "VEC3",
      "max": [1.0000044107437134, 1.0000044107437134, 1.0000044107437134],
      "min": [-1.0000044107437134, -1.0000044107437134, -1.0000044107437134],
      "name": "NORMAL"
    },
    {
      "bufferView": 0,
      "byteOffset": 504,
      "componentType": 5123,
      "count": 6,
      "type": "SCALAR",
      "max": [5],
      "min": [0]
    },
    {
      "bufferView": 2,
      "byteOffset": 0,
      "componentType": 5126,
      "count": 6,
      "type": "VEC3",
      "max": [1.0333683490753174, 0.0783364474773407, -3.4426231384277344],
      "min": [1.0333683490753174, -0.0783364474773407, -3.6545097827911377],
      "name": "POSITION"
    },
    {
      "bufferView": 2,
      "byteOffset": 12,
      "componentType": 5126,
      "count": 6,
      "type": "VEC3",
      "max": [1.0000042915344238, 0, 0],
      "min": [1.0000042915344238, 0, 0],
      "name": "NORMAL"
    },
    {
      "bufferView": 0,
      "byteOffset": 516,
      "componentType": 5123,
      "count": 120,
      "type": "SCALAR",
      "max": [119],
      "min": [0]
    },
    {
      "bufferView": 3,
      "byteOffset": 0,
      "componentType": 5126,
      "count": 120,
      "type": "VEC3",
      "max": [0.9354144930839539, 1, 3.7783570289611816],
      "min": [-1.064585566520691, -1, -3.317376136779785],
      "name": "POSITION"
    },
    {
      "bufferView": 3,
      "byteOffset": 12,
      "componentType": 5126,
      "count": 120,
      "type": "VEC3",
      "max": [1.0000044107437134, 1.0000044107437134, 0],
      "min": [-1.0000044107437134, -1.0000044107437134, 0],
      "name": "NORMAL"
    }
  ],
  "asset": { "generator": "Aspose.3D 21.5.1", "version": "2.0" },
  "buffers": [
    {
      "uri": "data:application/octet-stream;base64,",
      "byteLength": 9844
    }
  ],
  "bufferViews": [
    { "buffer": 0, "byteOffset": 0, "byteLength": 756, "target": 34963 },
    {
      "buffer": 0,
      "byteOffset": 760,
      "byteLength": 6048,
      "byteStride": 24,
      "target": 34962
    },
    {
      "buffer": 0,
      "byteOffset": 6812,
      "byteLength": 144,
      "byteStride": 24,
      "target": 34962
    },
    {
      "buffer": 0,
      "byteOffset": 6960,
      "byteLength": 2880,
      "byteStride": 24,
      "target": 34962
    }
  ],
  "materials": [
    {
      "pbrMetallicRoughness": {
        "baseColorFactor": [0, 0, 0, 1],
        "metallicFactor": 0,
        "roughnessFactor": 0
      },
      "emissiveFactor": [0, 0, 0],
      "alphaMode": "OPAQUE",
      "doubleSided": false
    },
    {
      "pbrMetallicRoughness": {
        "baseColorFactor": [
          0.33245155215263367, 0.33245155215263367, 0.33245155215263367, 1
        ],
        "metallicFactor": 0,
        "roughnessFactor": 0
      },
      "emissiveFactor": [
        0.33245155215263367, 0.33245155215263367, 0.33245155215263367
      ],
      "alphaMode": "OPAQUE",
      "doubleSided": false
    },
    {
      "pbrMetallicRoughness": {
        "baseColorFactor": [
          0.029556844383478165, 0.6583749651908875, 0.5209956169128418, 1
        ],
        "metallicFactor": 0,
        "roughnessFactor": 0
      },
      "emissiveFactor": [
        0.029556844383478165, 0.6583749651908875, 0.5209956169128418
      ],
      "alphaMode": "OPAQUE",
      "doubleSided": false
    }
  ],
  "meshes": [
    {
      "primitives": [
        {
          "attributes": { "POSITION": 1, "NORMAL": 2 },
          "indices": 0,
          "material": 0,
          "mode": 4
        },
        {
          "attributes": { "POSITION": 4, "NORMAL": 5 },
          "indices": 3,
          "material": 1,
          "mode": 4
        },
        {
          "attributes": { "POSITION": 7, "NORMAL": 8 },
          "indices": 6,
          "material": 2,
          "mode": 4
        }
      ]
    }
  ],
  "nodes": [
    {
      "matrix": [
        100, 0, 0, 0, 0, -1.6292067961387602e-5, -99.99999999999868, 0, 0,
        99.99999999999868, -1.6292067961387602e-5, 0, 0, 0, 0, 1
      ],
      "mesh": 0,
      "name": "Skyscraper1"
    }
  ],
  "scene": 0,
  "scenes": [{ "nodes": [0] }]
}
